<svg xmlns="http://www.w3.org/2000/svg" viewBox="0 0 800 800" width="800" height="800" style="background:transparent">
  <defs>
    <style>
      text { font-family: 'STSong', 'SimSun', 'NSimSun', serif; fill: #FFFFFF; }
    </style>
  </defs>

  <!-- ==============================
       OUTER RING: 64 Hexagrams (simplified labels around edge)
       ============================== -->
  <!-- 64 hexagram names arranged in outer ring at r=370 -->
  <!-- We place 64 labels evenly: angle step = 360/64 = 5.625 deg -->
  <!-- Starting angle offset so they align nicely -->

  <g id="hexagram-names" font-size="7.5" text-anchor="middle" dominant-baseline="middle">
    <!-- Generated positions: cx = 400 + 370*sin(angle), cy = 400 - 370*cos(angle) -->
    <!-- 64 gua names in traditional sequence -->
    <text transform="rotate(0,400,400) translate(400,30)">šĻĺ</text>
    <text transform="rotate(5.625,400,400) translate(400,30)">Śß§</text>
    <text transform="rotate(11.25,400,400) translate(400,30)">ťĀĀ</text>
    <text transform="rotate(16.875,400,400) translate(400,30)">Śź¶</text>
    <text transform="rotate(22.5,400,400) translate(400,30)">Ťßā</text>
    <text transform="rotate(28.125,400,400) translate(400,30)">ŚČ•</text>
    <text transform="rotate(33.75,400,400) translate(400,30)">ŚĚ§</text>
    <text transform="rotate(39.375,400,400) translate(400,30)">Ś§ć</text>
    <text transform="rotate(45,400,400) translate(400,30)">šłī</text>
    <text transform="rotate(50.625,400,400) translate(400,30)">ś≥į</text>
    <text transform="rotate(56.25,400,400) translate(400,30)">Ś§ßŚ£ģ</text>
    <text transform="rotate(61.875,400,400) translate(400,30)">Ś§¨</text>
    <text transform="rotate(67.5,400,400) translate(400,30)">ťúÄ</text>
    <text transform="rotate(73.125,400,400) translate(400,30)">śĮĒ</text>
    <text transform="rotate(78.75,400,400) translate(400,30)">Ťäā</text>
    <text transform="rotate(84.375,400,400) translate(400,30)">śóĘśĶé</text>
    <text transform="rotate(90,400,400) translate(400,30)">ŚĪĮ</text>
    <text transform="rotate(95.625,400,400) translate(400,30)">Áõä</text>
    <text transform="rotate(101.25,400,400) translate(400,30)">ťúá</text>
    <text transform="rotate(106.875,400,400) translate(400,30)">Śô¨ŚóĎ</text>
    <text transform="rotate(112.5,400,400) translate(400,30)">ťöŹ</text>
    <text transform="rotate(118.125,400,400) translate(400,30)">śó†Ś¶Ą</text>
    <text transform="rotate(123.75,400,400) translate(400,30)">śėéŚ§∑</text>
    <text transform="rotate(129.375,400,400) translate(400,30)">Ťī≤</text>
    <text transform="rotate(135,400,400) translate(400,30)">ŤČģ</text>
    <text transform="rotate(140.625,400,400) translate(400,30)">Ťíô</text>
    <text transform="rotate(146.25,400,400) translate(400,30)">Śłą</text>
    <text transform="rotate(151.875,400,400) translate(400,30)">Ťį¶</text>
    <text transform="rotate(157.5,400,400) translate(400,30)">ŚįŹŤŅá</text>
    <text transform="rotate(163.125,400,400) translate(400,30)">śóÖ</text>
    <text transform="rotate(168.75,400,400) translate(400,30)">ŤĻá</text>
    <text transform="rotate(174.375,400,400) translate(400,30)">Śíł</text>
    <text transform="rotate(180,400,400) translate(400,30)">ŚÖĎ</text>
    <text transform="rotate(185.625,400,400) translate(400,30)">Śõį</text>
    <text transform="rotate(191.25,400,400) translate(400,30)">ŤźÉ</text>
    <text transform="rotate(196.875,400,400) translate(400,30)">ťĚ©</text>
    <text transform="rotate(202.5,400,400) translate(400,30)">Ś§ßŤŅá</text>
    <text transform="rotate(208.125,400,400) translate(400,30)">Śćá</text>
    <text transform="rotate(213.75,400,400) translate(400,30)">šļē</text>
    <text transform="rotate(219.375,400,400) translate(400,30)">ťľé</text>
    <text transform="rotate(225,400,400) translate(400,30)">Ś∑Ĺ</text>
    <text transform="rotate(230.625,400,400) translate(400,30)">ŚįŹÁēú</text>
    <text transform="rotate(236.25,400,400) translate(400,30)">Śģ∂šļļ</text>
    <text transform="rotate(241.875,400,400) translate(400,30)">šł≠Ś≠ö</text>
    <text transform="rotate(247.5,400,400) translate(400,30)">śłź</text>
    <text transform="rotate(253.125,400,400) translate(400,30)">ś∂£</text>
    <text transform="rotate(258.75,400,400) translate(400,30)">ŚĪ•</text>
    <text transform="rotate(264.375,400,400) translate(400,30)">ÁĚĹ</text>
    <text transform="rotate(270,400,400) translate(400,30)">Á¶Ľ</text>
    <text transform="rotate(275.625,400,400) translate(400,30)">šłį</text>
    <text transform="rotate(281.25,400,400) translate(400,30)">ťĚ©</text>
    <text transform="rotate(286.875,400,400) translate(400,30)">śú™śĶé</text>
    <text transform="rotate(292.5,400,400) translate(400,30)">Ťß£</text>
    <text transform="rotate(298.125,400,400) translate(400,30)">śĀí</text>
    <text transform="rotate(303.75,400,400) translate(400,30)">Ťģľ</text>
    <text transform="rotate(309.375,400,400) translate(400,30)">Ś§ßśúČ</text>
    <text transform="rotate(315,400,400) translate(400,30)">ŚĚé</text>
    <text transform="rotate(320.625,400,400) translate(400,30)">śôč</text>
    <text transform="rotate(326.25,400,400) translate(400,30)">ŚźĆšļļ</text>
    <text transform="rotate(331.875,400,400) translate(400,30)">Ś§ßÁēú</text>
    <text transform="rotate(337.5,400,400) translate(400,30)">śćü</text>
    <text transform="rotate(343.125,400,400) translate(400,30)">ťĘź</text>
    <text transform="rotate(348.75,400,400) translate(400,30)">ŚĹíŚ¶Ļ</text>
    <text transform="rotate(354.375,400,400) translate(400,30)">šłį</text>
  </g>

  <!-- Outer boundary circles -->
  <circle cx="400" cy="400" r="390" fill="none" stroke="#FFFFFF" stroke-width="1" opacity="0.3"/>
  <circle cx="400" cy="400" r="355" fill="none" stroke="#FFFFFF" stroke-width="1" opacity="0.4"/>

  <!-- ==============================
       RING: ŚćĀŚ§©ŚĻ≤ + ŚćĀšļĆŚúįśĒĮ (r=320)
       ============================== -->
  <!-- 22 characters total, spaced evenly: 360/22 = 16.36 deg -->
  <g id="stems-branches" font-size="11" text-anchor="middle" dominant-baseline="middle">
    <!-- ŚćĀŚ§©ŚĻ≤: ÁĒ≤šĻôšłôšłĀśąäŚ∑ĪŚļöŤĺõŚ£¨Áôł -->
    <!-- ŚćĀšļĆŚúįśĒĮ: Ś≠źšłĎŚĮÖŚćĮŤĺįŚ∑≥Śćąśú™ÁĒ≥ťÖČśąĆšļ• -->
    <!-- Interleaved arrangement: total 22 items -->
    <text transform="rotate(0,400,400) translate(400,82)">Ś≠ź</text>
    <text transform="rotate(16.36,400,400) translate(400,82)">ÁĒ≤</text>
    <text transform="rotate(32.72,400,400) translate(400,82)">šłĎ</text>
    <text transform="rotate(49.09,400,400) translate(400,82)">šĻô</text>
    <text transform="rotate(65.45,400,400) translate(400,82)">ŚĮÖ</text>
    <text transform="rotate(81.81,400,400) translate(400,82)">šłô</text>
    <text transform="rotate(98.18,400,400) translate(400,82)">ŚćĮ</text>
    <text transform="rotate(114.54,400,400) translate(400,82)">šłĀ</text>
    <text transform="rotate(130.9,400,400) translate(400,82)">Ťĺį</text>
    <text transform="rotate(147.27,400,400) translate(400,82)">śąä</text>
    <text transform="rotate(163.63,400,400) translate(400,82)">Ś∑≥</text>
    <text transform="rotate(180,400,400) translate(400,82)">Ś∑Ī</text>
    <text transform="rotate(196.36,400,400) translate(400,82)">Śćą</text>
    <text transform="rotate(212.72,400,400) translate(400,82)">Śļö</text>
    <text transform="rotate(229.09,400,400) translate(400,82)">śú™</text>
    <text transform="rotate(245.45,400,400) translate(400,82)">Ťĺõ</text>
    <text transform="rotate(261.81,400,400) translate(400,82)">ÁĒ≥</text>
    <text transform="rotate(278.18,400,400) translate(400,82)">Ś£¨</text>
    <text transform="rotate(294.54,400,400) translate(400,82)">ťÖČ</text>
    <text transform="rotate(310.9,400,400) translate(400,82)">Áôł</text>
    <text transform="rotate(327.27,400,400) translate(400,82)">śąĆ</text>
    <text transform="rotate(343.63,400,400) translate(400,82)">šļ•</text>
  </g>

  <circle cx="400" cy="400" r="310" fill="none" stroke="#FFFFFF" stroke-width="1" opacity="0.5"/>
  <circle cx="400" cy="400" r="295" fill="none" stroke="#FFFFFF" stroke-width="1" opacity="0.3"/>

  <!-- ==============================
       EIGHT TRIGRAMS (ŚÖęŚć¶) at r=245
       Each trigram is 3 lines (ÁąĽ), solid=yang, broken=yin
       Arranged: šĻĺSŚĚéSEŤČģEťúáNEŚĚ§NÁ¶ĽNWŚÖĎWŚ∑ĹSW (ŚÖąŚ§©ŚÖęŚć¶ Fuxi arrangement)
       Angles (from top, clockwise): šĻĺ=0¬į(S), ŚÖĎ=45¬į, Á¶Ľ=90¬į, ťúá=135¬į, Ś∑Ĺ=180¬į, ŚĚé=225¬į, ŤČģ=270¬į, ŚĚ§=315¬į
       Using ŚźéŚ§©ŚÖęŚć¶ (King Wen): ŚĚéN=0¬į, ŤČģNE=45¬į, ťúáE=90¬į, Ś∑ĹSE=135¬į, Á¶ĽS=180¬į, ŚĚ§SW=225¬į, ŚÖĎW=270¬į, šĻĺNW=315¬į
       ============================== -->

  <!-- Helper: trigram lines drawn at local coords, then rotated into position -->
  <!-- Line format: yang=solid bar, yin=two short bars with gap -->
  <!-- Each trigram centered at distance 245 from center -->
  <!-- Lines: bottom=first yao, mid=second, top=third -->
  <!-- Width=36, height per line=6, gap between lines=5 -->

  <g id="trigrams" stroke="#FFFFFF" stroke-width="2" fill="none">

    <!-- ŚĚé ‚ėĶ (010) North, 0¬į = top -->
    <!-- yao1=yin, yao2=yang, yao3=yin -->
    <g transform="translate(400,155)">
      <!-- yao3 top: yin (broken) -->
      <line x1="-18" y1="-22" x2="-4" y2="-22"/>
      <line x1="4" y1="-22" x2="18" y2="-22"/>
      <!-- yao2 mid: yang (solid) -->
      <line x1="-18" y1="-11" x2="18" y2="-11"/>
      <!-- yao1 bot: yin (broken) -->
      <line x1="-18" y1="0" x2="-4" y2="0"/>
      <line x1="4" y1="0" x2="18" y2="0"/>
      <text x="0" y="20" font-size="13" fill="#FFFFFF" stroke="none" text-anchor="middle">ŚĚé</text>
    </g>

    <!-- ŤČģ ‚ė∂ (001) NE, 45¬į -->
    <!-- yao1=yin, yao2=yin, yao3=yang -->
    <g transform="rotate(45,400,400) translate(400,155) rotate(-45)">
      <!-- yao3 top: yang -->
      <line x1="-18" y1="-22" x2="18" y2="-22"/>
      <!-- yao2 mid: yin -->
      <line x1="-18" y1="-11" x2="-4" y2="-11"/>
      <line x1="4" y1="-11" x2="18" y2="-11"/>
      <!-- yao1 bot: yin -->
      <line x1="-18" y1="0" x2="-4" y2="0"/>
      <line x1="4" y1="0" x2="18" y2="0"/>
      <text x="0" y="20" font-size="13" fill="#FFFFFF" stroke="none" text-anchor="middle">ŤČģ</text>
    </g>

    <!-- ťúá ‚ė≥ (100) East, 90¬į -->
    <!-- yao1=yang, yao2=yin, yao3=yin -->
    <g transform="rotate(90,400,400) translate(400,155) rotate(-90)">
      <!-- yao3 top: yin -->
      <line x1="-18" y1="-22" x2="-4" y2="-22"/>
      <line x1="4" y1="-22" x2="18" y2="-22"/>
      <!-- yao2 mid: yin -->
      <line x1="-18" y1="-11" x2="-4" y2="-11"/>
      <line x1="4" y1="-11" x2="18" y2="-11"/>
      <!-- yao1 bot: yang -->
      <line x1="-18" y1="0" x2="18" y2="0"/>
      <text x="0" y="20" font-size="13" fill="#FFFFFF" stroke="none" text-anchor="middle">ťúá</text>
    </g>

    <!-- Ś∑Ĺ ‚ėī (011) SE, 135¬į -->
    <!-- yao1=yin, yao2=yang, yao3=yang -->
    <g transform="rotate(135,400,400) translate(400,155) rotate(-135)">
      <!-- yao3 top: yang -->
      <line x1="-18" y1="-22" x2="18" y2="-22"/>
      <!-- yao2 mid: yang -->
      <line x1="-18" y1="-11" x2="18" y2="-11"/>
      <!-- yao1 bot: yin -->
      <line x1="-18" y1="0" x2="-4" y2="0"/>
      <line x1="4" y1="0" x2="18" y2="0"/>
      <text x="0" y="20" font-size="13" fill="#FFFFFF" stroke="none" text-anchor="middle">Ś∑Ĺ</text>
    </g>

    <!-- Á¶Ľ ‚ė≤ (101) South, 180¬į -->
    <!-- yao1=yang, yao2=yin, yao3=yang -->
    <g transform="rotate(180,400,400) translate(400,155) rotate(-180)">
      <!-- yao3 top: yang -->
      <line x1="-18" y1="-22" x2="18" y2="-22"/>
      <!-- yao2 mid: yin -->
      <line x1="-18" y1="-11" x2="-4" y2="-11"/>
      <line x1="4" y1="-11" x2="18" y2="-11"/>
      <!-- yao1 bot: yang -->
      <line x1="-18" y1="0" x2="18" y2="0"/>
      <text x="0" y="20" font-size="13" fill="#FFFFFF" stroke="none" text-anchor="middle">Á¶Ľ</text>
    </g>

    <!-- ŚĚ§ ‚ė∑ (000) SW, 225¬į -->
    <!-- yao1=yin, yao2=yin, yao3=yin -->
    <g transform="rotate(225,400,400) translate(400,155) rotate(-225)">
      <!-- yao3 top: yin -->
      <line x1="-18" y1="-22" x2="-4" y2="-22"/>
      <line x1="4" y1="-22" x2="18" y2="-22"/>
      <!-- yao2 mid: yin -->
      <line x1="-18" y1="-11" x2="-4" y2="-11"/>
      <line x1="4" y1="-11" x2="18" y2="-11"/>
      <!-- yao1 bot: yin -->
      <line x1="-18" y1="0" x2="-4" y2="0"/>
      <line x1="4" y1="0" x2="18" y2="0"/>
      <text x="0" y="20" font-size="13" fill="#FFFFFF" stroke="none" text-anchor="middle">ŚĚ§</text>
    </g>

    <!-- ŚÖĎ ‚ėĪ (110) West, 270¬į -->
    <!-- yao1=yang, yao2=yang, yao3=yin -->
    <g transform="rotate(270,400,400) translate(400,155) rotate(-270)">
      <!-- yao3 top: yin -->
      <line x1="-18" y1="-22" x2="-4" y2="-22"/>
      <line x1="4" y1="-22" x2="18" y2="-22"/>
      <!-- yao2 mid: yang -->
      <line x1="-18" y1="-11" x2="18" y2="-11"/>
      <!-- yao1 bot: yang -->
      <line x1="-18" y1="0" x2="18" y2="0"/>
      <text x="0" y="20" font-size="13" fill="#FFFFFF" stroke="none" text-anchor="middle">ŚÖĎ</text>
    </g>

    <!-- šĻĺ ‚ėį (111) NW, 315¬į -->
    <!-- yao1=yang, yao2=yang, yao3=yang -->
    <g transform="rotate(315,400,400) translate(400,155) rotate(-315)">
      <!-- yao3 top: yang -->
      <line x1="-18" y1="-22" x2="18" y2="-22"/>
      <!-- yao2 mid: yang -->
      <line x1="-18" y1="-11" x2="18" y2="-11"/>
      <!-- yao1 bot: yang -->
      <line x1="-18" y1="0" x2="18" y2="0"/>
      <text x="0" y="20" font-size="13" fill="#FFFFFF" stroke="none" text-anchor="middle">šĻĺ</text>
    </g>

  </g>

  <!-- Inner ring circles bounding the trigrams -->
  <circle cx="400" cy="400" r="210" fill="none" stroke="#FFFFFF" stroke-width="1" opacity="0.6"/>
  <circle cx="400" cy="400" r="190" fill="none" stroke="#FFFFFF" stroke-width="1" opacity="0.4"/>

  <!-- Dividing lines between the 8 sectors -->
  <g stroke="#FFFFFF" stroke-width="1" opacity="0.25">
    <line x1="400" y1="190" x2="400" y2="610"/>
    <line x1="190" y1="400" x2="610" y2="400"/>
    <line x1="237" y1="237" x2="563" y2="563"/>
    <line x1="563" y1="237" x2="237" y2="563"/>
  </g>

  <!-- ==============================
       TAI CHI (Ś§™śěĀ) symbol at center, r=130
       Two interlocking fish
       ============================== -->
  <g id="taichi">
    <!-- Outer circle -->
    <circle cx="400" cy="400" r="130" fill="none" stroke="#FFFFFF" stroke-width="2"/>

    <!-- Yang fish (top half, white outline) -->
    <!-- Large S-curve path -->
    <!-- Top semicircle: from (400,270) arc to (400,400) -->
    <!-- Small yang circle top: center (400,335), r=65 -->
    <path d="M 400 270 
             A 65 65 0 0 1 400 400
             A 65 65 0 0 0 400 530
             A 130 130 0 0 1 400 270" 
          fill="none" stroke="#FFFFFF" stroke-width="2"/>

    <!-- Small inner circles -->
    <circle cx="400" cy="335" r="20" fill="none" stroke="#FFFFFF" stroke-width="2"/>
    <circle cx="400" cy="465" r="20" fill="none" stroke="#FFFFFF" stroke-width="2"/>

    <!-- Inner dot for yang eye (small filled dot = small circle) -->
    <circle cx="400" cy="335" r="5" fill="#FFFFFF"/>
    <!-- Inner dot for yin eye -->
    <circle cx="400" cy="465" r="5" fill="none" stroke="#FFFFFF" stroke-width="2"/>
  </g>

  <!-- Center decorative ring -->
  <circle cx="400" cy="400" r="135" fill="none" stroke="#FFFFFF" stroke-width="1" opacity="0.3"/>

  <!-- ==============================
       Outermost decorative ring and title area
       ============================== -->
  <circle cx="400" cy="400" r="395" fill="none" stroke="#FFFFFF" stroke-width="2" opacity="0.6"/>

  <!-- Tick marks at every 5.625¬į for 64 hexagram divisions -->
  <g stroke="#FFFFFF" stroke-width="1" opacity="0.4">
    <!-- 64 tick marks on outer ring -->
    <line transform="rotate(0,400,400)"   x1="400" y1="5"  x2="400" y2="20"/>
    <line transform="rotate(5.625,400,400)"   x1="400" y1="5"  x2="400" y2="15"/>
    <line transform="rotate(11.25,400,400)"  x1="400" y1="5"  x2="400" y2="15"/>
    <line transform="rotate(16.875,400,400)" x1="400" y1="5"  x2="400" y2="15"/>
    <line transform="rotate(22.5,400,400)"   x1="400" y1="5"  x2="400" y2="20"/>
    <line transform="rotate(28.125,400,400)" x1="400" y1="5"  x2="400" y2="15"/>
    <line transform="rotate(33.75,400,400)"  x1="400" y1="5"  x2="400" y2="15"/>
    <line transform="rotate(39.375,400,400)" x1="400" y1="5"  x2="400" y2="15"/>
    <line transform="rotate(45,400,400)"     x1="400" y1="5"  x2="400" y2="20"/>
    <line transform="rotate(50.625,400,400)" x1="400" y1="5"  x2="400" y2="15"/>
    <line transform="rotate(56.25,400,400)"  x1="400" y1="5"  x2="400" y2="15"/>
    <line transform="rotate(61.875,400,400)" x1="400" y1="5"  x2="400" y2="15"/>
    <line transform="rotate(67.5,400,400)"   x1="400" y1="5"  x2="400" y2="20"/>
    <line transform="rotate(73.125,400,400)" x1="400" y1="5"  x2="400" y2="15"/>
    <line transform="rotate(78.75,400,400)"  x1="400" y1="5"  x2="400" y2="15"/>
    <line transform="rotate(84.375,400,400)" x1="400" y1="5"  x2="400" y2="15"/>
    <line transform="rotate(90,400,400)"     x1="400" y1="5"  x2="400" y2="20"/>
    <line transform="rotate(95.625,400,400)" x1="400" y1="5"  x2="400" y2="15"/>
    <line transform="rotate(101.25,400,400)" x1="400" y1="5"  x2="400" y2="15"/>
    <line transform="rotate(106.875,400,400)" x1="400" y1="5" x2="400" y2="15"/>
    <line transform="rotate(112.5,400,400)"  x1="400" y1="5"  x2="400" y2="20"/>
    <line transform="rotate(118.125,400,400)" x1="400" y1="5" x2="400" y2="15"/>
    <line transform="rotate(123.75,400,400)" x1="400" y1="5"  x2="400" y2="15"/>
    <line transform="rotate(129.375,400,400)" x1="400" y1="5" x2="400" y2="15"/>
    <line transform="rotate(135,400,400)"    x1="400" y1="5"  x2="400" y2="20"/>
    <line transform="rotate(140.625,400,400)" x1="400" y1="5" x2="400" y2="15"/>
    <line transform="rotate(146.25,400,400)" x1="400" y1="5"  x2="400" y2="15"/>
    <line transform="rotate(151.875,400,400)" x1="400" y1="5" x2="400" y2="15"/>
    <line transform="rotate(157.5,400,400)"  x1="400" y1="5"  x2="400" y2="20"/>
    <line transform="rotate(163.125,400,400)" x1="400" y1="5" x2="400" y2="15"/>
    <line transform="rotate(168.75,400,400)" x1="400" y1="5"  x2="400" y2="15"/>
    <line transform="rotate(174.375,400,400)" x1="400" y1="5" x2="400" y2="15"/>
    <line transform="rotate(180,400,400)"    x1="400" y1="5"  x2="400" y2="20"/>
    <line transform="rotate(185.625,400,400)" x1="400" y1="5" x2="400" y2="15"/>
    <line transform="rotate(191.25,400,400)" x1="400" y1="5"  x2="400" y2="15"/>
    <line transform="rotate(196.875,400,400)" x1="400" y1="5" x2="400" y2="15"/>
    <line transform="rotate(202.5,400,400)"  x1="400" y1="5"  x2="400" y2="20"/>
    <line transform="rotate(208.125,400,400)" x1="400" y1="5" x2="400" y2="15"/>
    <line transform="rotate(213.75,400,400)" x1="400" y1="5"  x2="400" y2="15"/>
    <line transform="rotate(219.375,400,400)" x1="400" y1="5" x2="400" y2="15"/>
    <line transform="rotate(225,400,400)"    x1="400" y1="5"  x2="400" y2="20"/>
    <line transform="rotate(230.625,400,400)" x1="400" y1="5" x2="400" y2="15"/>
    <line transform="rotate(236.25,400,400)" x1="400" y1="5"  x2="400" y2="15"/>
    <line transform="rotate(241.875,400,400)" x1="400" y1="5" x2="400" y2="15"/>
    <line transform="rotate(247.5,400,400)"  x1="400" y1="5"  x2="400" y2="20"/>
    <line transform="rotate(253.125,400,400)" x1="400" y1="5" x2="400" y2="15"/>
    <line transform="rotate(258.75,400,400)" x1="400" y1="5"  x2="400" y2="15"/>
    <line transform="rotate(264.375,400,400)" x1="400" y1="5" x2="400" y2="15"/>
    <line transform="rotate(270,400,400)"    x1="400" y1="5"  x2="400" y2="20"/>
    <line transform="rotate(275.625,400,400)" x1="400" y1="5" x2="400" y2="15"/>
    <line transform="rotate(281.25,400,400)" x1="400" y1="5"  x2="400" y2="15"/>
    <line transform="rotate(286.875,400,400)" x1="400" y1="5" x2="400" y2="15"/>
    <line transform="rotate(292.5,400,400)"  x1="400" y1="5"  x2="400" y2="20"/>
    <line transform="rotate(298.125,400,400)" x1="400" y1="5" x2="400" y2="15"/>
    <line transform="rotate(303.75,400,400)" x1="400" y1="5"  x2="400" y2="15"/>
    <line transform="rotate(309.375,400,400)" x1="400" y1="5" x2="400" y2="15"/>
    <line transform="rotate(315,400,400)"    x1="400" y1="5"  x2="400" y2="20"/>
    <line transform="rotate(320.625,400,400)" x1="400" y1="5" x2="400" y2="15"/>
    <line transform="rotate(326.25,400,400)" x1="400" y1="5"  x2="400" y2="15"/>
    <line transform="rotate(331.875,400,400)" x1="400" y1="5" x2="400" y2="15"/>
    <line transform="rotate(337.5,400,400)"  x1="400" y1="5"  x2="400" y2="20"/>
    <line transform="rotate(343.125,400,400)" x1="400" y1="5" x2="400" y2="15"/>
    <line transform="rotate(348.75,400,400)" x1="400" y1="5"  x2="400" y2="15"/>
    <line transform="rotate(354.375,400,400)" x1="400" y1="5" x2="400" y2="15"/>
  </g>

  <!-- Cardinal direction markers -->
  <g font-size="14" fill="#FFFFFF" stroke="none" text-anchor="middle" dominant-baseline="middle" opacity="0.5">
    <text x="400" y="14">ŚĆó</text>
    <text x="786" y="404">šłú</text>
    <text x="400" y="790">Śćó</text>
    <text x="14" y="404">Ť•Ņ</text>
  </g>

</svg>
