<svg xmlns="http://www.w3.org/2000/svg" viewBox="0 0 1200 100" width="1200" height="100">

  <!--
    中国传统祥云纹水平分割线
    白色填充 | 透明背景 | 无描边
    形态：如意云头 + 卷云纹，从底部向上舒展，大小错落有致
  -->

  <g fill="#FFFFFF" stroke="none">

    <!-- ══════════════════════════════════════════
         基底横条 — 作为所有云团共同的底座
    ════════════════════════════════════════════ -->
    <rect x="0" y="90" width="1200" height="10"/>

    <!-- ══════════════════════════════════════════
         云团群（从左至右，大小高低交替）
    ════════════════════════════════════════════ -->

    <!-- 〔云1〕左端起始小云  高峰≈y:68 -->
    <path d="
      M 10,90  C 10,83 14,77 21,77
               C 18,72 19,65 24,61
               C 29,57 36,58 40,63
               C 44,58 51,57 55,62
               C 59,67 58,74 54,78
               C 58,80 62,85 62,90 Z
    "/>

    <!-- 〔云2〕高主云 (如意云头) 高峰≈y:38 -->
    <path d="
      M 75,90  C 75,82 80,76 87,75
               C 84,69 84,61 89,56
               C 94,51 102,51 107,56
               C 103,49 103,41 109,36
               C 115,31 124,32 129,38
               C 134,32 143,32 148,38
               C 153,43 152,52 147,57
               C 152,53 159,54 163,59
               C 167,65 166,73 161,77
               C 167,79 171,85 171,90 Z
    "/>

    <!-- 〔云3〕中等云  高峰≈y:54 -->
    <path d="
      M 186,90  C 186,83 191,78 198,77
                C 195,72 196,65 200,61
                C 205,56 212,57 216,62
                C 220,57 227,56 231,61
                C 235,66 234,73 230,77
                C 234,79 238,84 238,90 Z
    "/>

    <!-- 〔云4〕小装饰云  高峰≈y:68 -->
    <path d="
      M 252,90  C 252,85 255,81 260,81
                C 258,77 258,72 262,69
                C 266,66 271,67 274,71
                C 277,67 282,66 286,69
                C 290,73 289,79 285,82
                C 288,83 291,87 291,90 Z
    "/>

    <!-- 〔云5〕高主云 (最高峰，居图1/4处)  高峰≈y:32 -->
    <path d="
      M 305,90  C 305,81 311,75 319,74
                C 316,67 316,59 321,54
                C 326,48 334,48 339,53
                C 335,46 335,37 341,32
                C 347,27 357,27 362,33
                C 368,27 377,27 382,33
                C 387,38 386,47 381,52
                C 387,49 394,50 398,56
                C 402,62 400,70 395,74
                C 401,76 405,82 405,90 Z
    "/>

    <!-- 〔云6〕中等云  高峰≈y:55 -->
    <path d="
      M 420,90  C 420,83 425,78 432,77
                C 429,72 430,65 434,61
                C 439,56 446,57 450,62
                C 454,57 461,56 465,61
                C 469,66 468,73 464,77
                C 468,79 472,84 472,90 Z
    "/>

    <!-- 〔云7〕小卷云  高峰≈y:70 -->
    <path d="
      M 485,90  C 485,85 489,81 495,81
                C 492,77 493,72 497,69
                C 501,65 507,66 510,70
                C 514,66 519,65 523,68
                C 527,72 526,78 522,81
                C 526,83 529,87 529,90 Z
    "/>

    <!-- 〔云8〕中央最高主云 (全图视觉中心)  高峰≈y:28 -->
    <path d="
      M 545,90  C 545,81 551,74 559,73
                C 556,66 556,58 562,52
                C 568,46 577,46 582,52
                C 578,45 578,36 584,30
                C 590,24 600,24 606,30
                C 612,24 622,25 627,31
                C 632,37 631,46 626,52
                C 632,49 640,50 644,56
                C 648,62 647,71 641,75
                C 648,77 652,83 652,90 Z
    "/>

    <!-- 〔云9〕中等云  高峰≈y:55 -->
    <path d="
      M 668,90  C 668,83 673,78 680,77
                C 677,72 678,65 682,61
                C 687,56 694,57 698,62
                C 702,57 709,56 713,61
                C 717,66 716,73 712,77
                C 716,79 720,84 720,90 Z
    "/>

    <!-- 〔云10〕小装饰云  高峰≈y:70 -->
    <path d="
      M 733,90  C 733,85 737,81 743,81
                C 740,77 741,72 745,69
                C 749,66 755,67 758,71
                C 761,67 766,65 770,68
                C 774,72 773,78 769,81
                C 773,83 776,87 776,90 Z
    "/>

    <!-- 〔云11〕高主云  高峰≈y:33 -->
    <path d="
      M 791,90  C 791,81 797,75 805,74
                C 802,67 802,59 808,54
                C 813,48 821,48 826,53
                C 822,46 822,37 828,32
                C 834,27 844,28 849,33
                C 855,28 864,28 869,33
                C 874,39 873,47 868,52
                C 874,49 881,51 885,56
                C 889,62 888,70 882,74
                C 888,76 892,82 892,90 Z
    "/>

    <!-- 〔云12〕中等云  高峰≈y:56 -->
    <path d="
      M 908,90  C 908,83 913,78 920,77
                C 917,72 918,65 922,61
                C 927,56 934,57 938,62
                C 942,57 949,56 953,61
                C 957,66 956,73 952,77
                C 956,79 960,84 960,90 Z
    "/>

    <!-- 〔云13〕小卷云  高峰≈y:71 -->
    <path d="
      M 973,90  C 973,85 977,81 983,81
                C 980,77 981,72 985,69
                C 989,65 995,66 998,70
                C 1002,66 1007,65 1011,68
                C 1015,72 1014,78 1010,81
                C 1014,83 1017,87 1017,90 Z
    "/>

    <!-- 〔云14〕高主云  高峰≈y:35 -->
    <path d="
      M 1032,90  C 1032,82 1037,76 1044,75
                 C 1041,68 1041,60 1046,55
                 C 1051,50 1059,50 1064,55
                 C 1060,48 1060,40 1066,35
                 C 1072,30 1081,31 1086,36
                 C 1091,31 1099,31 1104,37
                 C 1108,42 1107,51 1102,56
                 C 1107,53 1115,54 1119,60
                 C 1123,66 1121,74 1116,78
                 C 1122,80 1126,85 1126,90 Z
    "/>

    <!-- 〔云15〕右端收尾中等云  高峰≈y:58 -->
    <path d="
      M 1141,90  C 1141,83 1146,78 1153,77
                 C 1150,72 1151,65 1155,61
                 C 1160,56 1167,57 1171,62
                 C 1175,57 1182,56 1186,61
                 C 1190,66 1189,73 1185,77
                 C 1189,79 1193,84 1193,90 Z
    "/>

  </g>

</svg>
